  0
SECTION
  2
HEADER
  9
$ACADVER
  1
AC1009
  0
ENDSEC
  0
SECTION
  2
TABLES
  0
TABLE
  2
LTYPE
 70
     3
  0
LTYPE
  2
LINETYPE_1
 70
    64
  3
See CAD-STD manual for LINETYPE_1
 72
    65
 73
     0
 40
0.0
  0
LTYPE
  2
LINETYPE_2
 70
    64
  3
See CAD-STD manual for LINETYPE_2
 72
    65
 73
     0
 40
0.0
  0
LTYPE
  2
LINETYPE_3
 70
    64
  3
See CAD-STD manual for LINETYPE_3
 72
    65
 73
     2
 40
0.1562
 49
0.125
 49
-0.0312
  0
LTYPE
  2
LINETYPE_4
 70
    64
  3
See CAD-STD manual for LINETYPE_4
 72
    65
 73
     4
 40
1.0
 49
0.75
 49
-0.0625
 49
0.125
 49
-0.0625
  0
LTYPE
  2
LINETYPE_5
 70
    64
  3
See CAD-STD manual for LINETYPE_5
 72
    65
 73
     2
 40
0.3125
 49
0.25
 49
-0.0625
  0
LTYPE
  2
LINETYPE_6
 70
    64
  3
See CAD-STD manual for LINETYPE_6
 72
    65
 73
     6
 40
1.1875
 49
0.75
 49
-0.0625
 49
0.125
 49
-0.0625
 49
0.125
 49
-0.0625
  0
LTYPE
  2
LINETYPE_7
 70
    64
  3
See CAD-STD manual for LINETYPE_7
 72
    65
 73
     6
 40
1.1875
 49
0.75
 49
-0.0625
 49
0.125
 49
-0.0625
 49
0.125
 49
-0.0625
  0
LTYPE
  2
LINETYPE_8
 70
    64
  3
See CAD-STD manual for LINETYPE_8
 72
    65
 73
     2
 40
0.125
 49
0.0625
 49
-0.0625
  0
LTYPE
  2
LINETYPE_9
 70
    64
  3
See CAD-STD manual for LINETYPE_9
 72
    65
 73
     2
 40
0.0625
 49
0.0001
 49
-0.0624
  0
LTYPE
  2
LINETYPE_10
 70
    64
  3
See CAD-STD manual for LINETYPE_10
 72
    65
 73
     4
 40
0.5625
 49
0.375
 49
-0.0625
 49
0.0625
 49
-0.0625
  0
LTYPE
  2
LINETYPE_11
 70
    64
  3
See CAD-STD manual for LINETYPE_11
 72
    65
 73
     0
 40
0.0
  0
ENDTAB
  0
TABLE
  2
LAYER
 70
    16
  0
LAYER
  2
0
 70
     0
 62
     7
  6
CONTINUOUS
  0
LAYER
  2
1
 70
     0
 62
     2
  6
CONTINUOUS
  0
LAYER
  2
2
 70
     0
 62
     4
  6
CONTINUOUS
  0
LAYER
  2
3
 70
     0
 62
     3
  6
CONTINUOUS
  0
LAYER
  2
4
 70
     0
 62
     9
  6
CONTINUOUS
  0
LAYER
  2
5
 70
     0
 62
     5
  6
CONTINUOUS
  0
LAYER
  2
6
 70
     0
 62
     6
  6
CONTINUOUS
  0
LAYER
  2
7
 70
     0
 62
     1
  6
CONTINUOUS
  0
LAYER
  2
8
 70
     0
 62
    40
  6
CONTINUOUS
  0
LAYER
  2
9
 70
     0
 62
    30
  6
CONTINUOUS
  0
LAYER
  2
10
 70
     0
 62
   134
  6
CONTINUOUS
  0
LAYER
  2
11
 70
     0
 62
    94
  6
CONTINUOUS
  0
LAYER
  2
12
 70
     0
 62
   254
  6
CONTINUOUS
  0
LAYER
  2
13
 70
     0
 62
   174
  6
CONTINUOUS
  0
LAYER
  2
14
 70
     0
 62
   214
  6
CONTINUOUS
  0
LAYER
  2
15
 70
     0
 62
    32
  6
CONTINUOUS
  0
ENDTAB
  0
ENDSEC
  0
SECTION
  2
ENTITIES
  0
POLYLINE
  8
0
  6
LINETYPE_1
 66
     1
 70
     1
 10
0.0
 20
0.0
 30
0.0
  0
VERTEX
  8
0
 10
1.9685
 20
-0.9843
 30
0.0
  0
VERTEX
  8
0
 10
7.874
 20
-0.9843
 30
0.0
  0
VERTEX
  8
0
 10
7.874
 20
-2.9528
 30
0.0
  0
VERTEX
  8
0
 10
1.9685
 20
-2.9528
 30
0.0
  0
SEQEND
  0
CIRCLE
  8
0
  6
LINETYPE_1
 10
11.0236
 20
-0.7874
 30
0.0
 40
0.2784
  0
POLYLINE
  8
0
  6
LINETYPE_1
 66
     1
 70
     1
 10
0.0
 20
0.0
 30
0.0
  0
VERTEX
  8
0
 10
1.7717
 20
-3.1496
 30
0.0
  0
VERTEX
  8
0
 10
1.7717
 20
-0.7874
 30
0.0
  0
VERTEX
  8
0
 10
8.0709
 20
-0.7874
 30
0.0
  0
VERTEX
  8
0
 10
9.252
 20
-0.1969
 30
0.0
  0
VERTEX
  8
0
 10
11.6142
 20
-0.1969
 30
0.0
  0
VERTEX
  8
0
 10
11.6142
 20
-1.1811
 30
0.0
  0
VERTEX
  8
0
 10
9.252
 20
-3.1496
 30
0.0
  0
SEQEND
  0
POLYLINE
  8
0
  6
LINETYPE_1
 66
     1
 70
     1
 10
0.0
 20
0.0
 30
0.0
  0
VERTEX
  8
0
 10
1.9685
 20
0.9843
 30
0.0
  0
VERTEX
  8
0
 10
7.874
 20
0.9843
 30
0.0
  0
VERTEX
  8
0
 10
7.874
 20
2.9528
 30
0.0
  0
VERTEX
  8
0
 10
1.9685
 20
2.9528
 30
0.0
  0
SEQEND
  0
CIRCLE
  8
0
  6
LINETYPE_1
 10
11.0236
 20
0.7874
 30
0.0
 40
0.2784
  0
POLYLINE
  8
0
  6
LINETYPE_1
 66
     1
 70
     1
 10
0.0
 20
0.0
 30
0.0
  0
VERTEX
  8
0
 10
9.4488
 20
-2.9528
 30
0.0
  0
VERTEX
  8
0
 10
11.4173
 20
-2.9528
 30
0.0
  0
VERTEX
  8
0
 10
11.4173
 20
2.9528
 30
0.0
  0
VERTEX
  8
0
 10
9.4488
 20
2.9528
 30
0.0
  0
SEQEND
  0
POLYLINE
  8
0
  6
LINETYPE_1
 66
     1
 70
     1
 10
0.0
 20
0.0
 30
0.0
  0
VERTEX
  8
0
 10
1.7717
 20
3.1496
 30
0.0
  0
VERTEX
  8
0
 10
1.7717
 20
0.7874
 30
0.0
  0
VERTEX
  8
0
 10
1.7717
 20
-0.7874
 30
0.0
  0
VERTEX
  8
0
 10
3.5433
 20
-0.7874
 30
0.0
  0
VERTEX
  8
0
 10
5.1181
 20
0.7874
 30
0.0
  0
VERTEX
  8
0
 10
8.0709
 20
0.7874
 30
0.0
  0
VERTEX
  8
0
 10
9.252
 20
0.1969
 30
0.0
  0
VERTEX
  8
0
 10
11.6142
 20
0.1969
 30
0.0
  0
VERTEX
  8
0
 10
11.6142
 20
1.1811
 30
0.0
  0
VERTEX
  8
0
 10
9.252
 20
3.1496
 30
0.0
  0
SEQEND
  0
ENDSEC
  0
EOF
